# xmcd
#
# Track frame offsets:
#	150
#	11670
#	24448
#	35411
#	48555
#	60423
#	73655
#	84648
#	99333
#	119888
#	132955
#	146130
#	156698
#	170238
#	183385
#	192682
#	205632
#	218727
#	235235
#	248685
#	263910
#	285115
#	297760
#	310662
#
# Disc length: 4294
#
# Revision: 2
# Processed by: cddbd v1.5.1PL0 Copyright (c) Steve Scherf et al.
# Submitted via: audiograbber 1.80
# Normalized: r1:DSETVAR1,TDELIM( - )
#
DISCID=6910c418
DTITLE=Various Artist - Blues Legends Vol. 1
DYEAR=1900
DGENRE=
TTITLE0=Blind Willie McTell - Kill It Kid
TTITLE1=Jimmy Yancey - Yancey Stomp
TTITLE2=Meade Lux Lewis - Honky Tonk Train Blues
TTITLE3=Big Maceo Parker - Chicago Breakdown
TTITLE4=Tampa Red - It's Thight Like That
TTITLE5=Leadbelly - Packin' Trunk Blues
TTITLE6=Mance Lipscomb - Mama Don't Allow
TTITLE7=Sam Chatmon - She Ain't No Good
TTITLE8=Son House - Pearline
TTITLE9=Bukka White - Special Streamline
TTITLE10=Gus Cannon's Jug Stompers - Walk Right In
TTITLE11=Arthur "Big Boy" Crudup - That's All Right Mama
TTITLE12=Speckle Red - The Dirty Dozen
TTITLE13=T-Bone Walker - High Society
TTITLE14=Sonny Terry and Brownie McGhee - I Love You Baby
TTITLE15=Big Bill Broonzy - Going Back To Arkansas
TTITLE16=Elmore James - Dust My Broom
TTITLE17=Jimmy Rushing - Boogie Woogie
TTITLE18=Champion Jack Dupree - Cabbage Greens
TTITLE19=Mississippi Fred McDowell - Big Fat Mama
TTITLE20=Reverend Gary Davis - Cincinatti Flow Rag
TTITLE21=Big Joe Williams - Please Don't Go
TTITLE22=Louisiana Red - Ride On Red, Ride On
TTITLE23=Slim Harpo - Rainin' In My Heart
EXTD=
EXTT0=
EXTT1=
EXTT2=
EXTT3=
EXTT4=
EXTT5=
EXTT6=
EXTT7=
EXTT8=
EXTT9=
EXTT10=
EXTT11=
EXTT12=
EXTT13=
EXTT14=
EXTT15=
EXTT16=
EXTT17=
EXTT18=
EXTT19=
EXTT20=
EXTT21=
EXTT22=
EXTT23=
PLAYORDER=
